new Crispy Bold-Wide.ufo
<glyph name="exclam" format="2">
  <advance width="949"/>
  <unicode hex="0021"/>
  <outline>
    <contour>
      <point x="161" y="485" type="line" identifier="1m237t4hyw"/>
      <point x="691" y="485" type="line" identifier="S4rO5KuHiL"/>
      <point x="746" y="568" type="line"/>
      <point x="746" y="1600" type="line" identifier="zfocDyDTCM"/>
      <point x="216" y="1600" type="line" identifier="v7N4yg5XNk"/>
      <point x="161" y="1503" type="line"/>
    </contour>
    <component base="period" xOffset="66"/>
  </outline>
</glyph>
<glyph name="comma" format="2">
  <advance width="1473"/>
  <unicode hex="002C"/>
  <outline>
    <contour>
      <point x="955" y="-442" type="line"/>
      <point x="1214" y="1" type="line"/>
      <point x="1214" y="401" type="line"/>
      <point x="748" y="401" type="line"/>
      <point x="663" y="269" type="line"/>
      <point x="663" y="0" type="line"/>
      <point x="910" y="0" type="line"/>
      <point x="910" y="-442" type="line"/>
    </contour>
  </outline>
</glyph>
<glyph name="three" format="2">
  <advance width="4705"/>
  <unicode hex="0033"/>
  <outline>
    <contour>
      <point x="259" y="0" type="line" identifier="O9abUc1nmN"/>
      <point x="4445" y="0" type="line" identifier="kMJYMTfXCq"/>
      <point x="4445" y="962" type="line" identifier="su2XmdS8e8"/>
      <point x="4128" y="962" type="line" identifier="JQaOzDQqlF"/>
      <point x="4128" y="1600" type="line" identifier="xg8x2Ki40p"/>
      <point x="307" y="1600" type="line" identifier="pE1XSRiy68"/>
      <point x="307" y="957" type="line" identifier="5lNstGRcSF"/>
      <point x="858" y="957" type="line" identifier="AcE5xKDZfE"/>
      <point x="858" y="1232" type="line" identifier="7ogBYufWpl"/>
      <point x="3577" y="1232" type="line" identifier="RHLvSX2Jv6"/>
      <point x="3577" y="963" type="line" identifier="iic1IBkDqp"/>
      <point x="1397" y="963" type="line" identifier="lRLJEhXMlO"/>
      <point x="1397" y="633" type="line" identifier="8aKgEELrVU"/>
      <point x="3894" y="633" type="line" identifier="Dm8zjmbhNr"/>
      <point x="3894" y="368" type="line" identifier="xv9CFHiFgB"/>
      <point x="810" y="368" type="line" identifier="YajKQV3MHP"/>
      <point x="810" y="649" type="line" identifier="36SchVkwze"/>
      <point x="259" y="649" type="line" identifier="tVui9PiOjA"/>
    </contour>
  </outline>
</glyph>
<glyph name="four" format="2">
  <advance width="4659"/>
  <unicode hex="0034"/>
  <outline>
    <contour>
      <point x="3476" y="0" type="line"/>
      <point x="4027" y="0" type="line"/>
      <point x="4027" y="563" type="line"/>
      <point x="4399" y="563" type="line"/>
      <point x="4399" y="959" type="line"/>
      <point x="4027" y="959" type="line"/>
      <point x="4027" y="1600" type="line"/>
      <point x="3476" y="1600" type="line"/>
      <point x="3476" y="959" type="line"/>
      <point x="809" y="959" type="line"/>
      <point x="809" y="1079" type="line"/>
      <point x="810" y="1581" type="line"/>
      <point x="259" y="1581" type="line"/>
      <point x="259" y="1079" type="line"/>
      <point x="259" y="563" type="line"/>
      <point x="3476" y="563" type="line"/>
    </contour>
  </outline>
</glyph>
<glyph name="six" format="2">
  <advance width="4651"/>
  <unicode hex="0036"/>
  <outline>
    <contour>
      <point x="259" y="0" type="line" identifier="uiw6aBUf4P"/>
      <point x="4392" y="0" type="line" identifier="jtYkxiUX6G"/>
      <point x="4392" y="980" type="line" identifier="2G5L37c87I"/>
      <point x="809" y="980" type="line"/>
      <point x="809" y="1053" type="line"/>
      <point x="1061" y="1232" type="line"/>
      <point x="3840" y="1232" type="line"/>
      <point x="3840" y="1059" type="line"/>
      <point x="4391" y="1059" type="line" identifier="Wuidbv6mUe"/>
      <point x="4391" y="1600" type="line" identifier="oGvEEuxnYv"/>
      <point x="727" y="1600" type="line" identifier="xR3pEHbMJx"/>
      <point x="259" y="1210" type="line" identifier="KnMArb0tv8"/>
    </contour>
    <contour>
      <point x="3841" y="612" type="line"/>
      <point x="3841" y="368" type="line"/>
      <point x="809" y="368" type="line"/>
      <point x="809" y="612" type="line"/>
    </contour>
  </outline>
</glyph>
<glyph name="eight" format="2">
  <advance width="4766"/>
  <unicode hex="0038"/>
  <outline>
    <contour>
      <point x="3609" y="616" type="line"/>
      <point x="3957" y="428" type="line"/>
      <point x="3957" y="368" type="line"/>
      <point x="809" y="368" type="line"/>
      <point x="809" y="416" type="line"/>
      <point x="1159" y="616" type="line"/>
    </contour>
    <contour>
      <point x="4154" y="789" type="line"/>
      <point x="4154" y="811" type="line"/>
      <point x="4504" y="1015" type="line"/>
      <point x="4504" y="1600" type="line"/>
      <point x="262" y="1600" type="line"/>
      <point x="262" y="1015" type="line"/>
      <point x="613" y="811" type="line"/>
      <point x="613" y="789" type="line"/>
      <point x="259" y="581" type="line"/>
      <point x="259" y="0" type="line"/>
      <point x="4507" y="0" type="line"/>
      <point x="4507" y="581" type="line"/>
    </contour>
    <contour>
      <point x="1159" y="984" type="line"/>
      <point x="813" y="1174" type="line"/>
      <point x="812" y="1232" type="line"/>
      <point x="3954" y="1232" type="line"/>
      <point x="3953" y="1174" type="line"/>
      <point x="3609" y="984" type="line"/>
    </contour>
  </outline>
</glyph>
<glyph name="A" format="2">
  <advance width="4705"/>
  <unicode hex="0041"/>
  <outline>
    <contour>
      <point x="259" y="0" type="line" smooth="yes" identifier="jFq8ta4UUc"/>
      <point x="809" y="0" type="line" smooth="yes" identifier="dQz4RxYhG4"/>
      <point x="809" y="485" type="line" smooth="yes" identifier="viYRWe5UN7"/>
      <point x="3774" y="485" type="line" smooth="yes" identifier="QVexAlbAcl"/>
      <point x="3774" y="0" type="line" smooth="yes" identifier="ZgsCdxNJRW"/>
      <point x="4325" y="0" type="line" smooth="yes" identifier="kpn4Kw9J0C"/>
      <point x="4325" y="1600" type="line" smooth="yes" identifier="OBZ5Ayed7M"/>
      <point x="738" y="1600" type="line" smooth="yes" identifier="iDT0uyhKrn"/>
      <point x="259" y="1101" type="line" smooth="yes" identifier="dqVr87m3uJ"/>
    </contour>
    <contour>
      <point x="809" y="881" type="line" smooth="yes" identifier="IIRC9Wy7kQ"/>
      <point x="809" y="984" type="line" smooth="yes" identifier="VufvPdJ075"/>
      <point x="1027" y="1204" type="line" smooth="yes" identifier="FsYtJ2vFnp"/>
      <point x="3774" y="1204" type="line" smooth="yes" identifier="tUsW8L7b0y"/>
      <point x="3774" y="881" type="line" smooth="yes" identifier="eTe9B4y76W"/>
    </contour>
  </outline>
</glyph>
<glyph name="B" format="2">
  <advance width="4814"/>
  <unicode hex="0042"/>
  <outline>
    <contour>
      <point x="380" y="0" type="line" identifier="hvY9r8RmLr"/>
      <point x="4090" y="0" type="line" identifier="9QFpw7nfq7"/>
      <point x="4555" y="513" type="line"/>
      <point x="4555" y="982" type="line" identifier="543PerILpr"/>
      <point x="4118" y="982" type="line" identifier="zhomauHW30"/>
      <point x="4167" y="1079" type="line"/>
      <point x="4167" y="1600" type="line" identifier="FaP204GrdB"/>
      <point x="380" y="1600" type="line" identifier="JEev70GAj6"/>
    </contour>
    <contour>
      <point x="931" y="374" type="line" identifier="jaMSiLrCua"/>
      <point x="931" y="622" type="line" identifier="XSrxNd2axx"/>
      <point x="4004" y="622" type="line" identifier="lsRGatjQja"/>
      <point x="4004" y="651" type="line"/>
      <point x="3729" y="374" type="line" identifier="xhlDJ3CjD5"/>
    </contour>
    <contour>
      <point x="931" y="977" type="line" identifier="By7dfMihfe"/>
      <point x="931" y="1226" type="line" identifier="1p5hKrurVy"/>
      <point x="3620" y="1226" type="line" identifier="Qby8aMtF2X"/>
      <point x="3620" y="1069" type="line"/>
      <point x="3572" y="977" type="line" identifier="xpxyvIzPoc"/>
    </contour>
  </outline>
</glyph>
<glyph name="E" format="2">
  <advance width="4387"/>
  <unicode hex="0045"/>
  <outline>
    <contour>
      <point x="380" y="0" type="line" identifier="fZynkQ4XHB"/>
      <point x="4007" y="0" type="line" identifier="FAQNpgUPxV"/>
      <point x="4007" y="651" type="line" identifier="gHI0YjrPxR"/>
      <point x="3463" y="651" type="line" identifier="gxCIuXb4el"/>
      <point x="3463" y="368" type="line" identifier="5cgTYOhATF"/>
      <point x="931" y="368" type="line" identifier="bWs42DaCgU"/>
      <point x="931" y="616" type="line" identifier="VtD2aADJmn"/>
      <point x="2797" y="616" type="line" identifier="PpbsFdHAnS"/>
      <point x="2797" y="984" type="line" identifier="8WuC5p8Ax5"/>
      <point x="931" y="984" type="line" identifier="m39IWn9ntA"/>
      <point x="931" y="1232" type="line" identifier="gQ21I4SHQg"/>
      <point x="3462" y="1232" type="line" identifier="eqNb2VTwYs"/>
      <point x="3462" y="944" type="line" identifier="mLmcFoJA4m"/>
      <point x="4006" y="944" type="line" identifier="e79n7CoPy1"/>
      <point x="4006" y="1600" type="line" identifier="qYRmo14Il5"/>
      <point x="380" y="1600" type="line" identifier="HmJIcnLWfC"/>
    </contour>
  </outline>
</glyph>
<glyph name="M" format="2">
  <advance width="5809"/>
  <unicode hex="004D"/>
  <outline>
    <contour>
      <point x="2496" y="200" type="line" identifier="0Dn4Xpf57M"/>
      <point x="1208" y="1248" type="line"/>
      <point x="923" y="1249" type="line"/>
      <point x="923" y="0" type="line"/>
      <point x="380" y="0" type="line"/>
      <point x="380" y="1600" type="line"/>
      <point x="1511" y="1600" type="line"/>
      <point x="2719" y="619" type="line"/>
      <point x="3099" y="618" type="line" identifier="9aKZPM0HPh"/>
      <point x="4307" y="1600" type="line"/>
      <point x="5429" y="1600" type="line"/>
      <point x="5429" y="0" type="line"/>
      <point x="4885" y="0" type="line"/>
      <point x="4885" y="1249" type="line"/>
      <point x="4601" y="1249" type="line"/>
      <point x="3313" y="200" type="line" identifier="spdoeeCFft"/>
    </contour>
  </outline>
</glyph>
<glyph name="S" format="2">
  <advance width="4373"/>
  <unicode hex="0053"/>
  <outline>
    <contour>
      <point x="260" y="0" type="line" identifier="09VlJ0BjUX"/>
      <point x="3647" y="0" type="line" identifier="EagWihqFM8"/>
      <point x="4113" y="508" type="line"/>
      <point x="4114" y="979" type="line" identifier="KfNuQA7eZe"/>
      <point x="811" y="979" type="line" identifier="At364YZFEy"/>
      <point x="811" y="943" type="line"/>
      <point x="1079" y="1227" type="line"/>
      <point x="3565" y="1227" type="line" identifier="3ZUkG35meB"/>
      <point x="3565" y="1089" type="line" identifier="DTOJhFIl15"/>
      <point x="4116" y="1089" type="line" identifier="9KDcrfQ5Ui"/>
      <point x="4115" y="1600" type="line" identifier="SaF9ojRFrW"/>
      <point x="724" y="1600" type="line"/>
      <point x="261" y="1085" type="line"/>
      <point x="261" y="622" type="line" identifier="3sQ8t8BZ6b"/>
      <point x="3562" y="622" type="line" identifier="yiV6OCBLHg"/>
      <point x="3562" y="650" type="line"/>
      <point x="3285" y="373" type="line" identifier="9kdl9SYsn8"/>
      <point x="810" y="373" type="line" identifier="yZDWuX8LLe"/>
      <point x="810" y="513" type="line" identifier="jYb9001DTm"/>
      <point x="260" y="513" type="line" identifier="ho4DrS0rdW"/>
    </contour>
  </outline>
</glyph>
<glyph name="W" format="2">
  <advance width="5809"/>
  <unicode hex="0057"/>
  <outline>
    <contour>
      <point x="2496" y="1401" type="line" identifier="0Dn4Xpf57M"/>
      <point x="1208" y="352" type="line"/>
      <point x="923" y="352" type="line"/>
      <point x="923" y="1600" type="line"/>
      <point x="380" y="1600" type="line"/>
      <point x="380" y="0" type="line"/>
      <point x="1511" y="0" type="line"/>
      <point x="2719" y="982" type="line"/>
      <point x="3099" y="982" type="line" identifier="9aKZPM0HPh"/>
      <point x="4307" y="0" type="line"/>
      <point x="5429" y="0" type="line"/>
      <point x="5429" y="1600" type="line"/>
      <point x="4885" y="1600" type="line"/>
      <point x="4885" y="352" type="line"/>
      <point x="4601" y="352" type="line"/>
      <point x="3313" y="1401" type="line" identifier="spdoeeCFft"/>
    </contour>
  </outline>
</glyph>
<glyph name="X" format="2">
  <advance width="4627"/>
  <unicode hex="0058"/>
  <outline>
    <contour>
      <point x="259" y="0" type="line"/>
      <point x="810" y="0" type="line"/>
      <point x="810" y="585" type="line"/>
      <point x="1042" y="585" type="line"/>
      <point x="3487" y="585" type="line"/>
      <point x="3817" y="458" type="line"/>
      <point x="3817" y="0" type="line"/>
      <point x="4368" y="0" type="line"/>
      <point x="4368" y="589" type="line"/>
      <point x="3992" y="731" type="line"/>
      <point x="3992" y="814" type="line"/>
      <point x="4366" y="814" type="line"/>
      <point x="4366" y="1600" type="line"/>
      <point x="3764" y="1600" type="line"/>
      <point x="3764" y="983" type="line"/>
      <point x="3614" y="983" type="line"/>
      <point x="1107" y="983" type="line"/>
      <point x="813" y="1101" type="line"/>
      <point x="813" y="1600" type="line"/>
      <point x="262" y="1600" type="line"/>
      <point x="262" y="981" type="line"/>
      <point x="585" y="840" type="line"/>
      <point x="585" y="756" type="line"/>
      <point x="259" y="756" type="line"/>
    </contour>
  </outline>
</glyph>
<glyph name="Y" format="2">
  <advance width="4634"/>
  <unicode hex="0059"/>
  <outline>
    <contour>
      <point x="382" y="0" type="line"/>
      <point x="4253" y="0" type="line" identifier="oOtn61SmRY"/>
      <point x="4253" y="1600" type="line" identifier="8OglXgblhr"/>
      <point x="3702" y="1600" type="line" identifier="db0bPhBdaU"/>
      <point x="3702" y="1048" type="line" identifier="MTAeavIVWY"/>
      <point x="931" y="1048" type="line" identifier="lggLiivmLt"/>
      <point x="931" y="1600" type="line" identifier="UPaHY3UudR"/>
      <point x="380" y="1600" type="line" identifier="ZnCDQVdtyD"/>
      <point x="380" y="680" type="line" identifier="uqAJBjDIOT"/>
      <point x="3702" y="680" type="line" identifier="7JgTtdb0jg"/>
      <point x="3702" y="368" type="line"/>
      <point x="932" y="368" type="line"/>
      <point x="932" y="524" type="line"/>
      <point x="382" y="524" type="line"/>
    </contour>
  </outline>
</glyph>
<glyph name="E.wide" format="2">
  <advance width="4434"/>
  <outline>
    <contour>
      <point x="380" y="0" type="line" identifier="fZynkQ4XHB"/>
      <point x="4053" y="0" type="line" identifier="FAQNpgUPxV"/>
      <point x="4053" y="373" type="line" identifier="5cgTYOhATF"/>
      <point x="930" y="373" type="line" identifier="bWs42DaCgU"/>
      <point x="930" y="624" type="line" identifier="VtD2aADJmn"/>
      <point x="3667" y="624" type="line" identifier="PpbsFdHAnS"/>
      <point x="3667" y="976" type="line" identifier="8WuC5p8Ax5"/>
      <point x="930" y="976" type="line" identifier="m39IWn9ntA"/>
      <point x="930" y="1228" type="line" identifier="gQ21I4SHQg"/>
      <point x="4040" y="1228" type="line" identifier="eqNb2VTwYs"/>
      <point x="4040" y="1600" type="line" identifier="qYRmo14Il5"/>
      <point x="380" y="1600" type="line" identifier="HmJIcnLWfC"/>
    </contour>
  </outline>
</glyph>
<glyph name="F.wide" format="2">
  <advance width="4538"/>
  <outline>
    <contour>
      <point x="380" y="0" type="line" identifier="oAgH2tA6DJ"/>
      <point x="931" y="0" type="line" identifier="zCZyMcW5ho"/>
      <point x="931" y="520" type="line" identifier="yHYqkMd7LI"/>
      <point x="3867" y="520" type="line" identifier="NmB7yyQuio"/>
      <point x="3867" y="916" type="line" identifier="wQk2C8zPHh"/>
      <point x="931" y="916" type="line" identifier="4cFHKQfHDt"/>
      <point x="931" y="1204" type="line" identifier="ZvzwyrcwpS"/>
      <point x="4158" y="1204" type="line" identifier="4E754ovOIe"/>
      <point x="4158" y="1600" type="line" identifier="NUrIjqOB7J"/>
      <point x="380" y="1600" type="line" identifier="TBAYuCfUFX"/>
    </contour>
  </outline>
</glyph>
<glyph name="L.wide" format="2">
  <advance width="4067"/>
  <outline>
    <contour>
      <point x="380" y="0" type="line" identifier="XkJNfQlnnt"/>
      <point x="3854" y="0" type="line" identifier="82EXZEgt46"/>
      <point x="3854" y="396" type="line" identifier="cqpSxwFiM3"/>
      <point x="931" y="396" type="line" identifier="MbxRZRd8vz"/>
      <point x="931" y="1600" type="line" identifier="lYiaKSKITt"/>
      <point x="380" y="1600" type="line" identifier="XFf4mMUzYo"/>
    </contour>
  </outline>
</glyph>
<glyph name="N.wide" format="2">
  <advance width="4303"/>
  <outline>
    <contour>
      <point x="376" y="0" type="line" identifier="CkwYPPvJLv"/>
      <point x="926" y="0" type="line" identifier="oHTJsN7drZ"/>
      <point x="926" y="1192" type="line" identifier="wfBbYd10Pm"/>
      <point x="1173" y="1192" type="line" identifier="MEnBDHq6zU"/>
      <point x="3573" y="0" type="line" identifier="3Nbopwznvn"/>
      <point x="4518" y="0" type="line" identifier="uKfuudIUvA"/>
      <point x="4518" y="1600" type="line" identifier="XRdLFXiM4t"/>
      <point x="3968" y="1600" type="line" identifier="MUSJPjCIXg"/>
      <point x="3968" y="411" type="line" identifier="VILP20cFmq"/>
      <point x="3721" y="411" type="line" identifier="z5b04GDwRN"/>
      <point x="1323" y="1600" type="line" identifier="LL64NQ6WBE"/>
      <point x="376" y="1600" type="line" identifier="dzUaaP1sjt"/>
    </contour>
  </outline>
</glyph>
<glyph name="P.wide" format="2">
  <advance width="4426"/>
  <outline>
    <contour>
      <point x="249" y="0" type="line" identifier="EG08jqU5fb"/>
      <point x="800" y="0" type="line" identifier="osRzIFK2Cu"/>
      <point x="800" y="450" type="line" identifier="hIFVovVRwe"/>
      <point x="4152" y="450" type="line" identifier="Tt6D8zYZmU"/>
      <point x="4152" y="1600" type="line" identifier="6xW04auDFu"/>
      <point x="249" y="1600" type="line" identifier="eETO5GBD5v"/>
    </contour>
    <contour>
      <point x="800" y="852" type="line" identifier="PIBVN1PGv1"/>
      <point x="800" y="1204" type="line" identifier="IZIZQr2gYJ"/>
      <point x="3602" y="1204" type="line" identifier="2c4LCF1E1R"/>
      <point x="3602" y="852" type="line" identifier="1WCnzth1GX"/>
    </contour>
  </outline>
</glyph>
<glyph name="R.wide" format="2">
  <advance width="4608"/>
  <outline>
    <contour>
      <point x="3600" y="0" type="line"/>
      <point x="4151" y="0" type="line"/>
      <point x="3660" y="628" type="line"/>
      <point x="3149" y="627" type="line"/>
    </contour>
    <contour>
      <point x="380" y="-1" type="line" identifier="EG08jqU5fb"/>
      <point x="931" y="-1" type="line" identifier="osRzIFK2Cu"/>
      <point x="931" y="601" type="line" identifier="hIFVovVRwe"/>
      <point x="4218" y="601" type="line" identifier="Tt6D8zYZmU"/>
      <point x="4218" y="1599" type="line" identifier="6xW04auDFu"/>
      <point x="380" y="1599" type="line" identifier="eETO5GBD5v"/>
    </contour>
    <contour>
      <point x="931" y="997" type="line" identifier="PIBVN1PGv1"/>
      <point x="931" y="1203" type="line" identifier="IZIZQr2gYJ"/>
      <point x="3668" y="1203" type="line" identifier="2c4LCF1E1R"/>
      <point x="3668" y="997" type="line" identifier="1WCnzth1GX"/>
    </contour>
  </outline>
</glyph>
<glyph name="S.wide" format="2">
  <advance width="4488"/>
  <outline>
    <contour>
      <point x="259" y="0" type="line" identifier="09VlJ0BjUX"/>
      <point x="3721" y="0" type="line" identifier="EagWihqFM8"/>
      <point x="4229" y="501" type="line"/>
      <point x="4229" y="978" type="line" identifier="KfNuQA7eZe"/>
      <point x="765" y="978" type="line" identifier="At364YZFEy"/>
      <point x="765" y="962" type="line"/>
      <point x="1033" y="1227" type="line"/>
      <point x="4224" y="1227" type="line" identifier="3ZUkG35meB"/>
      <point x="4223" y="1600" type="line" identifier="SaF9ojRFrW"/>
      <point x="771" y="1600" type="line"/>
      <point x="264" y="1085" type="line"/>
      <point x="264" y="621" type="line" identifier="3sQ8t8BZ6b"/>
      <point x="3727" y="621" type="line" identifier="yiV6OCBLHg"/>
      <point x="3727" y="630" type="line"/>
      <point x="3451" y="373" type="line" identifier="9kdl9SYsn8"/>
      <point x="259" y="373" type="line" identifier="yZDWuX8LLe"/>
    </contour>
  </outline>
</glyph>
<glyph name="S.wideskinny" format="2">
  <advance width="4396"/>
  <outline>
    <contour>
      <point x="259" y="0" type="line" identifier="09VlJ0BjUX"/>
      <point x="3678" y="0" type="line" identifier="EagWihqFM8"/>
      <point x="4136" y="501" type="line"/>
      <point x="4137" y="946" type="line" identifier="KfNuQA7eZe"/>
      <point x="713" y="946" type="line" identifier="At364YZFEy"/>
      <point x="713" y="942" type="line"/>
      <point x="981" y="1227" type="line"/>
      <point x="4131" y="1227" type="line" identifier="3ZUkG35meB"/>
      <point x="4130" y="1600" type="line" identifier="SaF9ojRFrW"/>
      <point x="720" y="1600" type="line"/>
      <point x="262" y="1085" type="line"/>
      <point x="262" y="653" type="line" identifier="3sQ8t8BZ6b"/>
      <point x="3685" y="653" type="line" identifier="yiV6OCBLHg"/>
      <point x="3685" y="650" type="line"/>
      <point x="3408" y="373" type="line" identifier="9kdl9SYsn8"/>
      <point x="259" y="373" type="line" identifier="yZDWuX8LLe"/>
    </contour>
  </outline>
</glyph>
<glyph name="U.alt" format="2">
  <advance width="4426"/>
  <outline>
    <contour>
      <point x="3641" y="1600" type="line" smooth="yes"/>
      <point x="3641" y="396" type="line"/>
      <point x="781" y="396" type="line" smooth="yes"/>
      <point x="781" y="1600" type="line"/>
      <point x="231" y="1600" type="line" smooth="yes"/>
      <point x="231" y="0" type="line" smooth="yes"/>
      <point x="4192" y="0" type="line" smooth="yes"/>
      <point x="4192" y="1600" type="line" smooth="yes"/>
    </contour>
  </outline>
</glyph>
<glyph name="Z.wide" format="2">
  <advance width="4471"/>
  <outline>
    <contour>
      <point x="255" y="0" type="line"/>
      <point x="4211" y="0" type="line" identifier="pzdvPTirLJ"/>
      <point x="4211" y="367" type="line"/>
      <point x="854" y="367" type="line"/>
      <point x="854" y="497" type="line"/>
      <point x="4205" y="882" type="line" identifier="yyb1NCCI5w"/>
      <point x="4205" y="1600" type="line" identifier="5FogYRSgkk"/>
      <point x="273" y="1600" type="line" identifier="svlFvrau4c"/>
      <point x="273" y="1232" type="line"/>
      <point x="3610" y="1232" type="line"/>
      <point x="3610" y="1113" type="line"/>
      <point x="255" y="742" type="line" identifier="teVKnpBcVb"/>
    </contour>
  </outline>
</glyph>
<glyph name="eight.skinnymiddle" format="2">
  <advance width="4674"/>
  <outline>
    <contour>
      <point x="3563" y="648" type="line"/>
      <point x="3911" y="460" type="line"/>
      <point x="3911" y="368" type="line"/>
      <point x="763" y="368" type="line"/>
      <point x="763" y="448" type="line"/>
      <point x="1112" y="648" type="line"/>
    </contour>
    <contour>
      <point x="4108" y="789" type="line"/>
      <point x="4108" y="811" type="line"/>
      <point x="4458" y="1015" type="line"/>
      <point x="4458" y="1600" type="line"/>
      <point x="216" y="1600" type="line"/>
      <point x="216" y="1015" type="line"/>
      <point x="566" y="811" type="line"/>
      <point x="566" y="789" type="line"/>
      <point x="213" y="581" type="line"/>
      <point x="213" y="0" type="line"/>
      <point x="4461" y="0" type="line"/>
      <point x="4461" y="581" type="line"/>
    </contour>
    <contour>
      <point x="1112" y="952" type="line"/>
      <point x="767" y="1142" type="line"/>
      <point x="766" y="1232" type="line"/>
      <point x="3908" y="1232" type="line"/>
      <point x="3907" y="1142" type="line"/>
      <point x="3562" y="952" type="line"/>
    </contour>
  </outline>
</glyph>
<glyph name="nine.wide" format="2">
  <advance width="4409"/>
  <outline>
    <contour>
      <point x="340" y="0" type="line" identifier="oGvEEuxnYv"/>
      <point x="4439" y="0" type="line" identifier="xR3pEHbMJx"/>
      <point x="4439" y="1600" type="line" identifier="uiw6aBUf4P"/>
      <point x="339" y="1600" type="line" identifier="jtYkxiUX6G"/>
      <point x="339" y="622" type="line" identifier="2G5L37c87I"/>
      <point x="3888" y="622" type="line"/>
      <point x="3888" y="374" type="line"/>
      <point x="340" y="374" type="line"/>
    </contour>
    <contour>
      <point x="890" y="978" type="line"/>
      <point x="890" y="1226" type="line"/>
      <point x="3888" y="1226" type="line"/>
      <point x="3888" y="978" type="line"/>
    </contour>
  </outline>
</glyph>
<glyph name="one.narrow" format="2">
  <advance width="2912"/>
  <outline>
    <contour>
      <point x="2531" y="0" type="line" identifier="5nmxQXofSG"/>
      <point x="2531" y="1600" type="line" identifier="4rjIeWbSbx"/>
      <point x="259" y="1600" type="line"/>
      <point x="259" y="1204" type="line"/>
      <point x="1981" y="1204" type="line"/>
      <point x="1981" y="0" type="line"/>
    </contour>
  </outline>
</glyph>
<glyph name="six.wide" format="2">
  <advance width="4402"/>
  <outline>
    <contour>
      <point x="293" y="0" type="line" identifier="uiw6aBUf4P"/>
      <point x="4412" y="0" type="line" identifier="jtYkxiUX6G"/>
      <point x="4412" y="971" type="line" identifier="2G5L37c87I"/>
      <point x="843" y="971" type="line"/>
      <point x="843" y="1086" type="line"/>
      <point x="1094" y="1226" type="line"/>
      <point x="4411" y="1226" type="line"/>
      <point x="4411" y="1600" type="line" identifier="oGvEEuxnYv"/>
      <point x="749" y="1600" type="line" identifier="xR3pEHbMJx"/>
      <point x="293" y="1242" type="line" identifier="KnMArb0tv8"/>
    </contour>
    <contour>
      <point x="3861" y="621" type="line"/>
      <point x="3861" y="374" type="line"/>
      <point x="843" y="374" type="line"/>
      <point x="843" y="621" type="line"/>
    </contour>
  </outline>
</glyph>
<glyph name="two.wide" format="2">
  <advance width="4373"/>
  <outline>
    <contour>
      <point x="369" y="0" type="line"/>
      <point x="4283" y="0" type="line" identifier="pzdvPTirLJ"/>
      <point x="4283" y="374" type="line"/>
      <point x="920" y="374" type="line"/>
      <point x="920" y="622" type="line"/>
      <point x="4293" y="622" type="line" identifier="yyb1NCCI5w"/>
      <point x="4293" y="1600" type="line" identifier="5FogYRSgkk"/>
      <point x="373" y="1600" type="line" identifier="svlFvrau4c"/>
      <point x="373" y="1226" type="line"/>
      <point x="3742" y="1226" type="line"/>
      <point x="3742" y="975" type="line"/>
      <point x="369" y="975" type="line" identifier="teVKnpBcVb"/>
    </contour>
  </outline>
</glyph>
<glyph name="two.wideskinny" format="2">
  <advance width="4373"/>
  <outline>
    <contour>
      <point x="369" y="0" type="line"/>
      <point x="4283" y="0" type="line" identifier="pzdvPTirLJ"/>
      <point x="4283" y="374" type="line"/>
      <point x="920" y="374" type="line"/>
      <point x="920" y="654" type="line"/>
      <point x="4293" y="654" type="line" identifier="yyb1NCCI5w"/>
      <point x="4293" y="1600" type="line" identifier="5FogYRSgkk"/>
      <point x="373" y="1600" type="line" identifier="svlFvrau4c"/>
      <point x="373" y="1226" type="line"/>
      <point x="3742" y="1226" type="line"/>
      <point x="3742" y="943" type="line"/>
      <point x="369" y="943" type="line" identifier="teVKnpBcVb"/>
    </contour>
  </outline>
</glyph>
